<?xml version="1.0" encoding="UTF-8"?> <svg xmlns="http://www.w3.org/2000/svg" width="120" height="120" viewBox="0 0 120 120" fill="none"><path d="M66.6345 17.8723C70.9529 17.6501 74.8823 18.2216 78.7164 19.6346C81.1376 20.5237 83.7889 20.9127 86.0592 22.0558C94.3625 26.2392 100.983 32.4151 105.278 40.639C107.492 44.8859 109.04 49.5139 109.794 54.4276C111.001 62.3181 110.072 69.8514 107.262 77.1784C104.738 83.767 101.229 89.8556 95.7041 94.42C87.6786 101.04 80.0897 105.986 66.2297 106.923C62.2924 107.193 58.5059 106.748 54.7432 105.716C51.1551 104.732 47.5115 103.97 44.233 102.001C35.7154 96.8888 28.7933 90.5303 24.7766 81.0522C22.5936 75.8924 21.776 70.6294 21.0377 65.2632C20.7916 63.4612 21.1568 61.5481 21.4346 59.7144C21.7045 57.9124 21.2679 56.7693 19.4977 55.9358C15.1794 53.9037 12.4486 50.1807 10.0513 46.2513C9.40832 45.1955 8.89234 43.7587 9.01935 42.5759C9.85285 35.3204 12.5756 29.1048 19.3945 25.5009C21.1965 24.5483 22.673 23.056 24.7766 22.5479C26.7214 22.0796 28.571 21.2302 30.4683 20.5554C32.4925 19.8331 34.4612 18.8964 36.541 18.4598C38.978 17.9517 40.5815 16.4355 42.2247 14.8082C42.82 14.2128 43.471 13.5699 44.2172 13.2603C45.138 12.8792 46.17 12.7284 46.5986 14.1652C46.7891 14.8082 47.2416 15.4353 47.7258 15.9275C50.8693 19.0948 52.1077 22.9369 51.8616 27.3188C51.4012 35.6221 49.0991 43.3062 43.9949 49.9901C41.9865 52.6177 39.3987 54.7372 36.5489 56.2692C34.6279 57.3012 32.1829 57.6108 29.9443 57.7299C28.571 57.8013 28.0233 58.3332 27.9201 59.3413C27.6899 61.6116 27.3644 63.9375 27.6185 66.184C28.3885 73.1378 30.9922 79.4645 34.7866 85.307C35.3979 86.2517 36.2949 87.0534 37.1998 87.7441C37.6999 88.1251 38.7001 88.4982 39.1129 88.26C41.3435 86.9661 43.4075 87.1963 45.5508 88.4188C45.9953 88.6728 46.6939 88.4188 47.2495 88.5141C50.6233 89.1253 53.5524 90.443 55.2036 93.7135C55.3941 94.0946 55.7989 94.3883 55.918 94.7773C57.204 98.8178 60.3554 99.5957 64.0546 99.5719C66.9203 99.556 69.778 99.6592 72.6437 99.6831C73.0644 99.6831 73.5407 99.6989 73.9059 99.5243C77.3749 97.8731 81.3836 97.246 84.2414 94.4597C85.2972 93.4278 87.1706 93.9199 87.75 92.2847C91.9493 89.8635 93.8942 85.2118 97.5934 82.2905C97.9903 81.9809 98.2364 81.3856 98.3872 80.8696C99.0461 78.6707 99.5859 76.4401 100.292 74.2571C100.904 72.352 101.65 70.4865 102.396 68.629C103.849 64.9933 104.793 61.3338 103.849 57.3647C102.618 52.197 101.697 46.9578 98.7682 42.3457C96.617 38.9561 94.4102 35.6697 91.0682 33.3041C90.1394 32.6453 89.3456 31.78 88.4804 31.0259C87.8374 30.4543 87.2658 29.6923 86.5196 29.3668C80.5978 26.8187 74.7632 23.8815 67.9999 24.5166C66.9203 24.6198 66.0471 24.9056 65.7375 26.0883C64.7691 29.8034 61.6017 31.8514 59.2203 34.479C58.744 34.995 57.6088 35.3125 56.9182 35.1458C55.8069 34.8759 54.6876 33.9947 54.9019 32.7167C55.1639 31.1688 54.3383 29.9622 54.1796 28.5889C53.9017 26.2153 53.8223 23.8101 53.862 21.4286C53.862 20.9285 54.64 20.3094 55.1956 19.976C58.2677 18.1264 61.7526 18.0152 65.1898 17.7771C65.7613 17.7374 66.3408 17.8644 66.6583 17.8882L66.6345 17.8723ZM45.9397 28.9461C45.5587 26.4297 45.2809 24.1594 44.8443 21.9129C44.5903 20.6269 43.7171 20.4364 42.2564 21.0952C36.9299 23.5164 31.7384 26.255 26.1023 27.9776C22.6174 29.0413 19.9184 31.5022 17.3147 33.8598C16.2113 34.86 16.1399 36.9239 15.3937 38.4004C13.9728 41.1867 14.6158 43.6793 16.1716 46.1163C16.632 46.8308 17.1083 47.5373 17.5291 48.2755C18.561 50.0457 20.4821 50.2521 22.1491 50.8872C22.3078 50.9507 22.7047 50.6728 22.8238 50.4585C23.1731 49.8393 23.5462 49.1963 23.7288 48.5216C24.8877 44.1159 27.4756 40.4723 29.984 36.8049C30.8572 35.5348 32.0162 34.4393 33.1593 33.3914C34.0087 32.6214 36.2711 32.7485 37.176 33.5502C38.327 34.5742 37.7396 35.5586 37.0172 36.5588C36.6918 37.0113 36.6759 37.7257 36.3028 38.1067C33.5165 40.9327 32.3814 44.7351 30.4444 48.0453C29.9047 48.9661 28.571 50.2521 29.865 51.4746C30.9604 52.5145 32.3179 51.8874 33.5086 51.3635C34.2865 51.0221 35.0803 50.6331 35.7313 50.1013C39.1844 47.2832 42.2882 44.2112 43.3122 39.5991C44.1219 35.9634 45.0824 32.3595 45.9159 28.954L45.9397 28.9461Z" fill="#EFEDEB"></path><path d="M86.4955 72.6147C86.2018 74.8692 86.1462 77.1951 85.535 79.3622C85.1301 80.7831 84.1776 82.2834 83.0265 83.1963C81.1531 84.6807 79.0178 85.9429 76.8189 86.8796C75.1677 87.5861 73.461 87.6734 71.6194 86.3081C68.9283 84.3077 66.4675 82.4739 65.4673 78.9891C64.737 76.4568 63.4351 76.1869 60.7282 76.9966C59.7836 77.2824 58.7596 77.7587 57.8546 77.6237C56.2273 77.3856 54.4888 77.0284 53.1155 76.1948C51.5993 75.274 51.123 73.4959 51.1548 71.6701C51.1627 70.9557 51.0119 70.2412 50.9167 69.5347C50.3451 65.1767 51.774 62.7158 55.9018 61.414C58.0848 60.7234 60.3154 60.2788 62.1333 58.7309C62.4667 58.4451 63.3875 58.3657 63.6892 58.6198C65.4514 60.0566 67.0391 59.3263 68.3409 58.1435C70.3652 56.2939 72.1751 56.8099 74.0882 58.1673C74.8105 58.6833 74.8582 59.2231 74.4295 59.9851C74.104 60.5646 73.6198 61.4378 73.8341 61.8744C74.493 63.2239 75.2948 64.5893 76.3505 65.6212C77.1999 66.4468 78.2081 65.6847 78.9701 64.9544C80.3037 63.6764 81.5977 62.3428 83.0027 61.152C83.6854 60.5725 84.892 61.1123 85.0349 61.9776C85.3286 63.7399 84.5189 65.7403 85.6302 67.2724C86.9083 69.0505 86.0827 70.8287 86.4876 72.6544L86.4955 72.6147Z" fill="#EFEDEB"></path><path d="M73.8906 37.376C75.5814 37.5189 78.2725 37.7015 80.9556 37.9793C84.9484 38.4 86.9568 41.4007 89.1239 44.2743C90.3782 45.9413 87.5522 46.8939 88.5603 48.1084C89.3144 49.0134 91.4895 47.7829 91.9102 49.3547C92.5373 51.6568 92.7596 54.0858 92.9819 56.4752C93.0612 57.3564 91.8467 57.9041 91.0688 57.3961C90.2353 56.8563 89.4732 56.1974 88.727 55.5385C87.6554 54.5939 86.671 53.554 85.5676 52.649C84.5674 51.8314 83.5751 51.371 82.059 51.7758C80.1617 52.2839 78.0899 52.1251 76.1053 52.3791C74.5971 52.5776 73.9303 50.5295 72.2156 51.1011C71.8584 51.2202 70.8503 50.1247 70.501 49.4103C69.8818 48.1481 68.9213 47.5686 67.7147 46.9415C65.8413 45.9651 64.1266 44.6394 62.5231 43.2503C61.6976 42.5358 60.7688 41.3768 60.7609 40.4163C60.7609 39.0907 62.5787 39.5273 63.436 38.8287C66.3096 36.4949 69.6754 37.6697 73.8906 37.3601V37.376Z" fill="#EFEDEB"></path><path d="M70.9048 91.4356C70.8334 92.8883 70.2936 93.6424 69.3728 93.3725C68.3567 93.0788 67.0469 92.9439 66.9278 91.515C66.8167 90.2052 68.063 88.9827 69.2061 89.1018C70.4921 89.2367 70.9842 89.9035 70.9048 91.4277V91.4356Z" fill="#EFEDEB"></path></svg> 