<?xml version="1.0" encoding="UTF-8"?> <svg xmlns="http://www.w3.org/2000/svg" width="234" height="55" viewBox="0 0 234 55" fill="none"><path d="M21.0751 39.0419C23.6459 35.9257 22.1055 34.332 22.1055 34.332C27.0172 37.8712 23.4195 41.5017 23.4195 41.5017C23.4195 41.5017 26.1896 40.6288 25.1086 36.4467C23.5107 30.3124 29.5575 29.4395 29.5575 29.4395C29.5575 29.4395 24.9025 31.0805 28.8481 35.7125C32.0235 39.4344 30.1994 41.0246 30.1994 41.0246C31.9256 40.2261 30.875 38.9607 31.2128 36.934C31.4628 35.4283 33.0809 35.5806 33.0809 35.5806C31.2871 36.8426 33.4457 38.7746 34.8003 41.2378C39.3912 48.8305 29.5981 51.0873 29.5981 51.0873C32.1147 48.6037 28.5846 47.0812 28.5846 47.0947C24.6188 45.4875 26.372 41.8299 26.372 41.8299C24.6829 44.239 24.6492 45.721 26.1119 47.9778C27.5746 50.2346 26.1119 51.182 26.1119 51.182C18.7037 50.2245 17.6329 43.2172 21.0751 39.0419Z" fill="#EFEDEB"></path><path d="M52.0686 17.0677C51.1701 14.9519 50.0034 12.9604 48.5972 11.1421C48.1028 10.5067 47.5811 9.89117 47.032 9.29548C45.9679 8.14736 44.8059 7.09398 43.5592 6.14728C43.0509 5.76108 42.5291 5.39374 41.994 5.04526C40.8841 4.32005 39.7218 3.67841 38.5167 3.12566C38.0024 2.89037 37.4807 2.67096 36.9515 2.46743C35.8213 2.03459 34.663 1.67885 33.4846 1.40264C32.9674 1.28053 32.4457 1.17429 31.9195 1.08395C30.7709 0.888219 29.6109 0.767338 28.4466 0.72207C28.0937 0.707177 27.7392 0.698242 27.3818 0.698242C27.215 0.698242 27.0482 0.698242 26.8829 0.698242C25.7203 0.71951 24.5603 0.816014 23.4101 0.98715C22.8829 1.06558 22.3612 1.1594 21.8449 1.26861C20.6663 1.51765 19.5061 1.84653 18.3721 2.25298C17.8419 2.44261 17.3202 2.64812 16.8069 2.86952C15.6067 3.387 14.4459 3.99175 13.3341 4.67891C12.8009 5.00952 12.2782 5.35651 11.7704 5.72137C10.53 6.61339 9.36816 7.60983 8.29754 8.6998C7.7505 9.25378 7.22878 9.83061 6.73237 10.4303C2.75337 15.2276 0.577596 21.2655 0.581916 27.4982C0.581916 42.2771 12.6044 54.304 27.3878 54.304C42.1712 54.304 54.1937 42.2816 54.1937 27.4982C54.1935 23.9139 53.4707 20.3664 52.0686 17.0677ZM27.3818 52.788C13.4383 52.788 2.09347 41.4432 2.09347 27.4982C2.09198 24.9218 2.48523 22.3604 3.25952 19.9032V26.213L4.99595 27.4982L6.73237 26.213V12.9158C7.22084 12.2268 7.74256 11.5631 8.29754 10.9247V26.213L10.034 27.4982L11.7704 26.213V7.61714C12.2767 7.22001 12.7979 6.84126 13.3341 6.48087V26.213L15.0705 27.4982L16.8069 26.213V4.52999C17.3192 4.29271 17.8409 4.0728 18.3721 3.87027V26.2085L20.1085 27.4937L21.8449 26.2085V2.82186C22.3602 2.7057 22.8819 2.60642 23.4101 2.52402V26.213L25.1465 27.4982L26.8829 26.213V2.21575C27.0482 2.21575 27.215 2.21575 27.3818 2.21575C27.7392 2.21575 28.0937 2.22469 28.4466 2.23958V26.2159L30.1771 27.4982L31.9135 26.213V2.61784C32.4407 2.71712 32.9624 2.82981 33.4787 2.95589V26.213L35.2151 27.4982L36.9515 26.213V4.09365C37.4817 4.31108 38.0034 4.54637 38.5167 4.79954V26.213L40.2531 27.4982L41.9881 26.213V6.86955C42.5271 7.25079 43.0489 7.65288 43.5532 8.07582V26.213L45.2896 27.4982L47.0261 26.213V11.5993C47.5873 12.2874 48.1117 13.0048 48.5972 13.7482V26.213L50.3336 27.4982L52.0686 26.213V22.0089C52.467 23.8114 52.6668 25.6521 52.6642 27.4982C52.6717 41.4432 41.3268 52.788 27.3818 52.788Z" fill="#EFEDEB"></path><path d="M66.3338 18.6639C67.6276 19.1705 68.853 19.5949 70.003 19.9509C71.2028 20.306 72.4485 20.4813 73.6996 20.4712C74.3749 20.5366 75.0546 20.4059 75.6574 20.0947C75.8121 19.9917 75.9392 19.8523 76.0275 19.6888C76.1158 19.5253 76.1627 19.3426 76.164 19.1568C76.1679 18.9692 76.1263 18.7835 76.0429 18.6154C75.9594 18.4473 75.8366 18.3019 75.6848 18.1916C75.092 17.8113 74.4428 17.5271 73.7612 17.3496C72.6043 16.9799 71.5433 16.5966 70.5917 16.1995C69.7064 15.8486 68.8853 15.3536 68.1616 14.7346C67.5012 14.1577 66.9794 13.4394 66.635 12.633C66.2442 11.6569 66.0601 10.6103 66.0942 9.55938C66.0696 8.46811 66.3042 7.38656 66.7788 6.40358C67.2235 5.49218 67.8781 4.69922 68.6887 4.08979C69.6147 3.42479 70.6573 2.93949 71.7623 2.65907C73.083 2.31598 74.4436 2.15023 75.808 2.1662C77.5579 2.14275 79.305 2.31264 81.0175 2.67277C82.2458 2.94501 83.4591 3.28088 84.6525 3.67905L82.8726 9.33347C82.5646 9.19656 82.1881 9.05965 81.7568 8.9022C81.3255 8.74475 80.8464 8.60785 80.3466 8.47778C79.8469 8.34772 79.3061 8.23819 78.7516 8.1492C78.2014 8.06222 77.6452 8.01873 77.0882 8.01913C76.4765 7.98473 75.8662 8.10726 75.3152 8.37509C75.1322 8.46072 74.9768 8.59589 74.8667 8.76527C74.7566 8.93465 74.6962 9.13149 74.6922 9.33347C74.6857 9.53159 74.7256 9.72849 74.8086 9.90849C74.9355 10.1232 75.1239 10.2949 75.3494 10.4014C75.7641 10.6227 76.1969 10.8082 76.6432 10.9559C77.2251 11.1681 78.0123 11.4351 79.0597 11.7636C80.7013 12.2213 82.201 13.0853 83.4203 14.2759C84.4707 15.5017 85.0056 17.0866 84.9126 18.6982C84.9126 21.3497 84.0797 23.3326 82.414 24.6469C80.7482 25.9613 78.3158 26.6185 75.1166 26.6185C73.5476 26.6228 71.981 26.4922 70.4343 26.2283C69.0394 25.9863 67.666 25.6338 66.327 25.174L66.3338 18.6639Z" fill="#EFEDEB"></path><path d="M86.549 20.4232H88.7532V8.34769H86.549V2.75488H98.1864L102.492 17.3496L106.538 2.75488H117.84V8.34769H115.642V20.4232H117.84V26.0092H108.804V13.8652L105.155 26.0297H98.8778L95.2291 13.8652V26.0297H86.549V20.4232Z" fill="#EFEDEB"></path><path d="M131.257 26.6188C129.51 26.652 127.773 26.3451 126.143 25.7151C124.729 25.1573 123.456 24.2949 122.413 23.1891C121.387 22.0677 120.604 20.7462 120.113 19.3077C119.063 16.115 119.063 12.6703 120.113 9.47753C120.602 8.04056 121.386 6.72112 122.413 5.60297C123.453 4.49267 124.728 3.62752 126.143 3.07011C127.773 2.44014 129.51 2.13324 131.257 2.1665C133.017 2.13346 134.768 2.44026 136.412 3.07011C137.838 3.62732 139.123 4.49215 140.177 5.60297C141.215 6.71618 142.006 8.03666 142.497 9.47753C143.547 12.6703 143.547 16.115 142.497 19.3077C142.005 20.7499 141.214 22.0723 140.177 23.1891C139.121 24.2956 137.836 25.1577 136.412 25.7151C134.768 26.345 133.017 26.6518 131.257 26.6188ZM131.257 20.3072C131.799 20.3397 132.337 20.2106 132.805 19.9364C133.273 19.6622 133.649 19.2552 133.886 18.7669C134.502 17.3945 134.784 15.8952 134.707 14.3926C134.783 12.8891 134.513 11.3882 133.92 10.0046C133.679 9.51328 133.297 9.10525 132.823 8.83316C132.348 8.56107 131.803 8.4374 131.257 8.47809C130.725 8.454 130.198 8.58558 129.739 8.85672C129.281 9.12785 128.911 9.52678 128.676 10.0046C128.066 11.3834 127.789 12.8868 127.869 14.3926C127.793 15.8917 128.062 17.3882 128.656 18.7669C128.89 19.2507 129.262 19.6547 129.725 19.9286C130.187 20.2025 130.72 20.3341 131.257 20.3072Z" fill="#EFEDEB"></path><path d="M144.729 20.4232H146.933V8.34769H144.729V2.75488H154.258V9.99061L160.994 2.75488H167.401V8.40929H164.526L160.946 12.2907L165.211 20.4232H168.202V26.0092H159.618L155.285 17.5481L154.258 18.6981V26.0297H144.729V20.4232Z" fill="#EFEDEB"></path><path d="M169.879 20.4232H172.056V8.34769H169.859V2.75488H182.119V8.34769H179.915V20.4232H182.119V26.0092H169.879V20.4232Z" fill="#EFEDEB"></path><path d="M183.844 20.4232H186.048V8.34769H183.844V2.75488H193.873L199.952 14.3923V2.75488H209.22V8.34769H207.016V26.0297H199.486L193.044 14.4265V26.0297H183.844V20.4232Z" fill="#EFEDEB"></path><path d="M211.322 9.59428C212.097 8.18725 212.783 6.73317 213.376 5.24053C214.011 3.60055 214.47 1.89789 214.745 0.161133L220.858 1.76984C220.638 2.78286 220.342 3.77818 219.975 4.74765C219.632 5.63643 219.225 6.49898 218.757 7.32841C218.338 8.07326 217.867 8.78705 217.346 9.46423C216.892 10.052 216.403 10.6121 215.881 11.1414L211.322 9.59428Z" fill="#EFEDEB"></path><path d="M81.0087 45.0678H78.6744V40.5292H87.8406V52.461C86.4345 53.3363 84.8909 53.9681 83.2746 54.3298C81.6235 54.6668 79.9419 54.832 78.2568 54.8227C76.4459 54.8721 74.6418 54.5818 72.9378 53.967C71.4991 53.4415 70.2009 52.5912 69.1442 51.4823C68.0875 50.3734 67.3008 49.0357 66.8453 47.5733C66.3242 45.9666 66.0698 44.2854 66.0923 42.5965C66.0623 40.8713 66.3548 39.1556 66.9548 37.5377C67.502 36.0876 68.3595 34.7746 69.4672 33.6905C70.617 32.5972 71.9837 31.7576 73.4786 31.2261C75.2113 30.62 77.0376 30.3256 78.8729 30.3567C79.82 30.3521 80.7658 30.4277 81.7001 30.5826C82.5087 30.7244 83.3087 30.9118 84.0961 31.144C84.7519 31.3439 85.3925 31.591 86.0128 31.8833C86.5878 32.1434 87.067 32.383 87.4641 32.5678L84.9518 38.2222C84.246 37.7621 83.4904 37.3832 82.6996 37.0927C81.8074 36.7785 80.8659 36.6278 79.9203 36.6478C79.1084 36.6294 78.3016 36.7809 77.5517 37.0927C76.9029 37.3677 76.3299 37.795 75.8814 38.3386C75.4267 38.912 75.0915 39.5708 74.8957 40.2759C74.6708 41.0498 74.5601 41.8523 74.5671 42.6582C74.5605 43.41 74.6479 44.1597 74.8272 44.8898C74.9843 45.5517 75.2679 46.177 75.6624 46.7312C76.0477 47.2438 76.5438 47.6626 77.1136 47.9566C77.7501 48.2759 78.4554 48.4334 79.1673 48.4153C79.5358 48.4165 79.9039 48.3937 80.2694 48.3468C80.5299 48.3209 80.7883 48.2775 81.043 48.2167L81.0087 45.0678Z" fill="#EFEDEB"></path><path d="M89.6818 48.641H91.8176L97.5747 30.959H107.843L113.559 48.641H115.695V54.2338H107.302L106.056 49.8595H98.7589L97.5062 54.268H89.6818V48.641ZM104.311 43.7807L102.442 37.2021L100.532 43.7807H104.311Z" fill="#EFEDEB"></path><path d="M117.297 36.5449H115.093V30.959H125.087V44.2051C125.073 44.8662 125.128 45.5269 125.251 46.1766C125.326 46.6029 125.494 47.0074 125.744 47.3609C125.955 47.6448 126.257 47.8477 126.6 47.9359C127.017 48.046 127.448 48.0967 127.88 48.0865C128.307 48.0942 128.733 48.0436 129.146 47.9359C129.494 47.8495 129.8 47.6465 130.016 47.3609C130.266 47.0074 130.434 46.6029 130.509 46.1766C130.632 45.5269 130.687 44.8662 130.673 44.2051V30.959H140.435V36.5449H138.23V44.1435C138.256 45.7144 138.074 47.2819 137.69 48.8053C137.382 50.0448 136.778 51.1911 135.93 52.1459C135.056 53.0731 133.961 53.7632 132.747 54.1517C131.172 54.6392 129.529 54.8704 127.88 54.8362C126.204 54.8698 124.534 54.6388 122.931 54.1517C121.69 53.7651 120.566 53.0758 119.659 52.1459C118.795 51.1946 118.175 50.0484 117.851 48.8053C117.459 47.2832 117.272 45.7152 117.297 44.1435V36.5449Z" fill="#EFEDEB"></path><path d="M160.588 53.345C159.522 53.8938 158.383 54.288 157.206 54.5156C155.986 54.729 154.749 54.8321 153.51 54.8237C151.771 54.8585 150.041 54.5563 148.417 53.9338C147.014 53.3896 145.751 52.5381 144.72 51.442C143.698 50.3314 142.929 49.0116 142.468 47.5742C141.944 45.968 141.688 44.2868 141.708 42.5975C141.692 40.9208 141.982 39.2551 142.564 37.6824C143.102 36.2294 143.942 34.9067 145.028 33.801C146.142 32.6946 147.476 31.8341 148.944 31.275C150.601 30.6506 152.362 30.3441 154.133 30.3714C155.617 30.3399 157.097 30.5385 158.521 30.9601C159.634 31.3083 160.709 31.767 161.731 32.3292L159.164 38.0453C158.666 37.7172 158.144 37.4266 157.603 37.1759C156.84 36.8531 156.015 36.7012 155.187 36.7309C154.496 36.693 153.807 36.8175 153.173 37.0945C152.539 37.3715 151.979 37.7933 151.538 38.3259C150.632 39.5547 150.18 41.0593 150.258 42.5838C150.258 44.5554 150.714 46.0135 151.627 46.9581C152.12 47.4354 152.705 47.8067 153.347 48.0493C153.988 48.2918 154.673 48.4004 155.358 48.3683C156.189 48.3512 157.016 48.241 157.822 48.0397C158.788 47.8148 159.713 47.4382 160.561 46.9239L160.588 53.345Z" fill="#EFEDEB"></path><path d="M163.086 48.641H165.284V36.5449H163.086V30.959H172.951V39.0162H177.743V30.959H187.641V36.5449H185.437V48.641H187.641V54.2338H177.743V45.3894H172.951V54.2338H163.093L163.086 48.641Z" fill="#EFEDEB"></path><path d="M201.018 54.823C199.271 54.8562 197.534 54.5493 195.904 53.9193C194.488 53.3619 193.214 52.4968 192.173 51.3865C191.146 50.2683 190.363 48.9489 189.873 47.5119C188.824 44.3192 188.824 40.8745 189.873 37.6817C190.364 36.2432 191.147 34.9218 192.173 33.8003C193.216 32.6946 194.49 31.8321 195.904 31.2743C197.534 30.6443 199.271 30.3374 201.018 30.3707C202.781 30.3368 204.533 30.6436 206.179 31.2743C207.603 31.8333 208.887 32.6952 209.944 33.8003C210.977 34.9192 211.765 36.2412 212.258 37.6817C213.307 40.8745 213.307 44.3192 212.258 47.5119C211.767 48.9512 210.978 50.2712 209.944 51.3865C208.89 52.4958 207.604 53.3603 206.179 53.9193C204.533 54.5501 202.781 54.8569 201.018 54.823ZM201.018 48.5114C201.559 48.5439 202.098 48.4148 202.566 48.1406C203.034 47.8664 203.41 47.4594 203.647 46.9711C204.263 45.5987 204.545 44.0994 204.468 42.5968C204.548 41.093 204.278 39.5912 203.681 38.2088C203.44 37.7175 203.058 37.3094 202.583 37.0374C202.109 36.7653 201.563 36.6416 201.018 36.6823C200.486 36.6582 199.958 36.7898 199.5 37.0609C199.042 37.3321 198.672 37.731 198.437 38.2088C197.826 39.5876 197.55 41.091 197.629 42.5968C197.556 44.0965 197.827 45.5931 198.423 46.9711C198.655 47.454 199.026 47.8565 199.488 48.1273C199.951 48.398 200.483 48.5246 201.018 48.4908V48.5114Z" fill="#EFEDEB"></path><path d="M214.983 46.8687C216.279 47.3752 217.502 47.8019 218.652 48.1488C219.851 48.5095 221.097 48.6872 222.349 48.6759C223.024 48.7414 223.704 48.6106 224.307 48.2994C224.461 48.1964 224.588 48.057 224.677 47.8935C224.765 47.73 224.812 47.5474 224.813 47.3615C224.816 47.1731 224.775 46.9865 224.691 46.8175C224.608 46.6484 224.485 46.5017 224.334 46.3895C223.741 46.0161 223.095 45.7345 222.417 45.5543C221.253 45.1847 220.199 44.8013 219.241 44.4043C218.358 44.0491 217.537 43.5545 216.811 42.9393C216.143 42.3646 215.614 41.6461 215.264 40.8377C214.874 39.8614 214.689 38.815 214.723 37.7641C214.702 36.6732 214.936 35.5924 215.407 34.6083C215.864 33.6907 216.536 32.8969 217.365 32.2945C218.288 31.6283 219.329 31.1428 220.432 30.8638C221.753 30.5212 223.113 30.3554 224.478 30.3709C226.228 30.3441 227.975 30.514 229.687 30.8775C230.915 31.1497 232.129 31.4856 233.322 31.8838L231.549 37.5382C231.248 37.4081 230.865 37.2644 230.433 37.1138C230.002 36.9632 229.523 36.8194 229.023 36.6893C228.498 36.5489 227.966 36.4392 227.428 36.3608C226.878 36.2715 226.322 36.2258 225.765 36.2238C225.152 36.1913 224.542 36.3162 223.992 36.5867C223.809 36.6711 223.654 36.8051 223.544 36.9733C223.434 37.1415 223.373 37.3372 223.369 37.5382C223.353 37.7662 223.411 37.9933 223.534 38.1857C223.657 38.3781 223.839 38.5256 224.053 38.6061C224.468 38.8341 224.904 39.0221 225.354 39.1674C225.929 39.3796 226.723 39.6466 227.764 39.9752C229.406 40.4301 230.907 41.2945 232.124 42.4875C233.176 43.7125 233.711 45.298 233.617 46.9097C233.617 49.5612 232.784 51.5442 231.118 52.8585C229.452 54.1728 227.02 54.83 223.821 54.83C222.251 54.8344 220.685 54.7038 219.138 54.4398C217.743 54.1979 216.37 53.8454 215.031 53.3856L214.983 46.8687Z" fill="#EFEDEB"></path></svg> 