<?xml version="1.0" encoding="UTF-8"?> <svg xmlns="http://www.w3.org/2000/svg" width="120" height="120" viewBox="0 0 120 120" fill="none"><path fill-rule="evenodd" clip-rule="evenodd" d="M54.9083 11.1833C54.427 11.312 53.1358 13.7667 53.2383 14.3581C53.2609 14.4884 52.7212 15.1419 52.0388 15.8105C51.3563 16.4787 50.8352 17.1575 50.881 17.3184C50.9268 17.4796 50.7499 17.6113 50.4883 17.6113C50.2268 17.6113 49.9297 17.8729 49.8281 18.193C49.7266 18.5132 49.2848 19.1621 48.8463 19.6355C48.4078 20.1088 47.7885 21.0064 47.4698 21.6301C47.1512 22.2537 46.4252 23.3172 45.857 23.993C44.0008 26.2 43.4442 27.062 42.8394 28.6647C42.5118 29.533 42.14 30.2438 42.0136 30.2438C41.8871 30.2438 41.4397 31.029 41.0195 31.989C40.5992 32.9491 40.108 34.0568 39.9277 34.4507C39.7475 34.8446 39.7014 35.3307 39.8248 35.5311C39.9483 35.7312 39.9029 35.8951 39.724 35.8951C39.2387 35.8951 38.6402 37.9885 38.5569 39.9764C38.5167 40.9391 38.4022 41.8733 38.303 42.0525C37.9697 42.6522 38.4181 45.2502 38.8858 45.4297C39.1391 45.5271 39.3465 45.7491 39.3465 45.9233C39.3465 46.0975 39.1972 46.1474 39.0146 46.0344C38.2542 45.5636 39.1388 48.3614 40.0808 49.4059C40.4658 49.8331 40.5777 50.1665 40.3603 50.2393C40.1608 50.3058 40.4489 50.8547 40.9999 51.459C41.5509 52.0634 42.002 52.7731 42.002 53.0361C42.002 53.299 42.1513 53.5141 42.3339 53.5141C42.5164 53.5141 42.6658 53.7332 42.6658 54.0011C42.6658 54.7478 44.4453 56.5954 45.8706 57.3291C46.5726 57.6905 47.7443 58.5555 48.4745 59.2513C49.2048 59.9471 50.1757 60.6006 50.6321 60.7037C51.0885 60.8064 52.0593 61.1561 52.7896 61.4806C53.5198 61.8054 54.4386 62.1704 54.8316 62.2924C55.5964 62.5297 55.6641 62.922 56.1254 69.8034C56.3714 73.4698 56.4434 73.6706 57.6656 74.0971C59.2811 74.6612 60.0286 74.5007 60.8949 73.4043L61.6978 72.3881L61.1505 67.6884C60.5066 62.1627 60.0256 62.9815 65.5193 60.2519C67.5915 59.2223 69.3637 58.1798 69.4573 57.9358C69.5509 57.6915 69.7972 57.5256 70.0046 57.5672C71.9448 57.9564 74.9706 52.5753 76.0228 46.8654C76.614 43.6561 76.459 38.3309 75.7314 36.8708C75.4363 36.2781 75.193 35.554 75.191 35.2622C75.187 34.7299 74.318 32.9584 72.272 29.3119C71.6686 28.2365 69.5775 25.6502 67.6251 23.5645C65.6727 21.4785 63.5201 19.0241 62.8417 18.1099C61.4506 16.2357 59.9901 14.7856 59.4928 14.7856C59.3093 14.7856 59.1241 14.5429 59.0806 14.2467C58.9657 13.4632 57.9059 11.9383 57.6052 12.1244C57.4641 12.2119 56.9715 11.9861 56.5105 11.6228C56.0494 11.2598 55.6212 10.9799 55.5585 11.0011C55.4961 11.0224 55.2034 11.1042 54.9083 11.1833ZM58.8044 19.0241C59.2416 19.5271 59.4975 19.9383 59.3727 19.9383C59.2482 19.9383 59.447 20.2751 59.8145 20.6863C60.1819 21.0975 60.8199 21.9987 61.2321 22.6889C61.6444 23.379 62.4155 24.1682 62.9455 24.4428C63.4753 24.7174 63.9091 25.0215 63.9091 25.1193C63.9091 25.2167 63.7226 25.1841 63.4942 25.0468C62.9572 24.7237 63.6602 25.6735 65.2495 27.4181C66.5373 28.8316 68.3178 31.6274 68.7015 32.8384C68.8286 33.2397 69.0719 33.5681 69.2422 33.5681C69.4125 33.5681 69.5519 33.7154 69.5519 33.8952C69.5519 34.0751 69.9665 35.085 70.4736 36.1391C71.3144 37.8884 71.3888 38.3468 71.3224 41.3803C71.2348 45.3738 71.1103 46.4878 70.6526 47.3641C70.4617 47.7298 70.3781 48.2334 70.467 48.4831C70.556 48.7327 70.4873 49.0319 70.3143 49.1479C70.1417 49.2639 69.6462 49.9973 69.2133 50.7782C68.6066 51.8726 67.9659 52.4291 66.4168 53.2076C65.3115 53.7631 64.012 54.434 63.5294 54.6983C63.0468 54.9625 62.1705 55.2754 61.5823 55.393L60.5132 55.6071L60.7243 53.6464C61.0768 50.3743 61.2481 44.061 60.9945 43.7057C60.6639 43.2426 58.5674 42.5438 57.5089 42.5438C56.6144 42.5438 56.4461 42.8713 55.8008 45.8681C55.4862 47.3295 55.3524 53.6351 55.601 55.2767C55.7331 56.1487 55.7291 56.9316 55.592 57.0163C55.2946 57.2005 52.0494 55.398 50.0097 53.9164C49.2111 53.3363 48.4038 52.9566 48.216 53.073C48.0278 53.1893 47.9733 53.1238 48.0945 52.9274C48.2156 52.7309 47.9401 52.2748 47.4821 51.9138C47.0237 51.5528 46.6489 51.1106 46.6489 50.9308C46.6489 50.7509 46.4259 50.4182 46.153 50.1915C44.7092 48.9914 42.9121 44.5677 42.9788 42.3776C43.0376 40.4385 44.3879 35.8483 45.456 33.9557C46.0515 32.9009 46.9434 31.2231 47.4383 30.2268C47.9332 29.2305 49 27.5178 49.8092 26.4208C51.4828 24.1512 53.6194 20.6989 53.6194 20.2641C53.6194 20.1038 53.9985 19.563 54.4615 19.0623C54.9249 18.5617 55.2541 17.9184 55.1934 17.6325C55.1327 17.3466 55.3882 16.9304 55.7617 16.7074C56.3502 16.3563 56.5453 16.4228 57.2251 17.206C57.6566 17.7033 58.3673 18.5211 58.8044 19.0241ZM15.0259 31.3268C14.3379 31.5007 13.6332 31.9073 13.4602 32.2307C12.9431 33.1988 12.419 35.9117 12.271 38.3884C12.1946 39.6683 12.0781 41.0146 12.012 41.3803C11.931 41.8287 12.1196 42.1156 12.5912 42.2612C13.2518 42.4657 13.2468 42.4793 12.5003 42.5106C11.7638 42.5415 11.7216 42.6449 11.8786 44.0398C11.9792 44.9317 11.9125 45.5357 11.7136 45.5357C11.5132 45.5357 11.4441 46.2032 11.5407 47.2079C11.629 48.1274 11.6048 48.9395 11.4866 49.0126C11.2071 49.1858 11.2967 51.6432 11.6008 52.1359C11.7299 52.3453 11.6702 52.5168 11.4673 52.5168C11.2118 52.5168 11.1294 53.7894 11.1988 56.6726C11.2539 58.9584 11.224 60.8283 11.1328 60.8283C10.9014 60.8277 10.9953 68.4663 11.2383 69.4144C11.3475 69.8403 11.5125 70.4387 11.6048 70.7442C11.697 71.0493 11.861 71.8229 11.9689 72.4629C12.0771 73.1028 12.5182 74.2248 12.9494 74.9561C13.9087 76.5834 16.5442 79.444 17.0842 79.444C17.301 79.444 17.3989 79.5733 17.3013 79.7312C17.0832 80.0849 20.2375 82.7946 21.0215 82.9269C21.3332 82.9798 21.5582 83.1686 21.5214 83.3464C21.4846 83.5246 21.7979 83.8544 22.2175 84.0794C22.6374 84.3045 23.1701 84.971 23.4008 85.5604C23.6318 86.1498 24.1303 86.7725 24.5087 86.944C25.3598 87.3303 25.7186 88.1866 24.8968 87.8708C24.4095 87.6837 24.3846 87.7515 24.7149 88.3692C24.925 88.7628 25.0183 89.0846 24.922 89.0846C24.8258 89.0846 24.9522 89.6457 25.2028 90.3312C25.6214 91.4764 26.0247 93.5122 26.6016 97.3954C26.7237 98.2182 26.8004 100.841 26.7718 103.223C26.7091 108.435 26.8375 108.713 29.416 108.95C30.4051 109.042 31.1088 109.003 30.9797 108.866C30.8502 108.728 31.0308 108.372 31.3803 108.075C31.9396 107.599 32.0256 106.997 32.0983 103.047C32.1849 98.3282 31.9094 94.936 31.3199 93.4584C31.126 92.9727 30.9282 92.1616 30.8801 91.6559C30.7579 90.3707 30.045 88.7531 29.5975 88.7471C29.3599 88.7438 29.3788 88.6428 29.649 88.4712C30.0921 88.1897 29.8651 87.09 29.3635 87.09C29.2065 87.09 29.1591 86.8772 29.259 86.6169C29.3585 86.3569 29.1421 85.8457 28.7783 85.4813C28.4142 85.1166 28.1842 84.7503 28.2672 84.6675C28.6077 84.3264 27.5777 82.7683 27.0118 82.7683C26.6762 82.7683 26.4014 82.6098 26.4014 82.4163C26.4014 82.2228 26.5657 82.1659 26.7665 82.2903C27.9575 83.0273 25.4285 79.9875 23.8695 78.8077C23.5276 78.5491 22.8365 77.9593 22.333 77.4969C21.6243 76.8453 21.3289 76.7453 21.0219 77.0528C20.5393 77.5361 20.0948 77.567 20.0948 77.1169C20.0948 76.9341 20.2292 76.8221 20.3935 76.8676C20.5578 76.9135 20.7072 76.8384 20.7255 76.7014C20.8154 76.0246 20.7324 75.7643 20.4768 75.9225C20.3218 76.0186 19.9949 75.7227 19.7506 75.2656C19.4651 74.7311 19.1246 74.504 18.798 74.6296C18.5181 74.737 18.393 74.7214 18.5195 74.5947C18.6459 74.4681 18.3256 73.8245 17.8078 73.1643C16.3812 71.3455 16.12 68.4351 16.2966 56.3398C16.4562 45.4087 16.6006 41.1832 16.9441 37.3479L17.1566 34.9773L18.0448 35.7947C20.8224 38.3511 21.0949 38.7318 21.4829 40.5991C21.7249 41.7626 22.0193 42.4212 22.2566 42.3301C22.4671 42.249 22.6397 42.4072 22.6397 42.6811C22.6397 42.955 22.5258 43.109 22.3868 43.0229C22.0847 42.836 21.8626 43.5208 21.5719 45.5357C21.453 46.3585 21.301 47.4057 21.2346 47.8627C20.5814 52.3423 20.5887 52.4131 21.8304 53.6567C22.4704 54.2977 23.3829 55.6447 23.8582 56.6496L24.7219 58.477L25.794 58.0256C26.5936 57.6888 26.8661 57.3641 26.8661 56.7477C26.8661 55.6563 26.1535 53.3197 25.3482 51.7702C24.992 51.0854 24.7872 50.3852 24.8925 50.2144C24.998 50.0435 25.1563 49.1825 25.2446 48.3015C25.3326 47.4203 25.4683 46.1384 25.546 45.4526C25.6383 44.6408 25.5517 44.2043 25.2977 44.201C25.0063 44.197 25.0043 44.1338 25.2895 43.9517C25.4996 43.8174 25.715 43.4829 25.7681 43.2087C25.9244 42.4055 25.3754 38.2222 25.1138 38.2222C24.9827 38.2222 24.6953 37.7238 24.4752 37.1148C24.0723 35.9985 21.0763 32.9065 19.3028 31.7766C18.1583 31.0476 16.7287 30.8973 15.0259 31.3268ZM102.527 31.2723C100.29 31.9212 94.9015 35.6205 95.2862 36.2435C95.3698 36.3791 95.2327 36.5693 94.9815 36.6657C94.2834 36.9343 93.6933 39.9369 93.9435 41.9458C94.0643 42.9148 94.1424 44.7153 94.1168 45.9473C94.0912 47.1796 94.1888 48.3764 94.3329 48.6067C94.4773 48.8375 94.6465 49.3976 94.7086 49.851C94.7707 50.3048 94.9987 50.7888 95.2148 50.9264C95.487 51.0996 95.4472 51.1784 95.085 51.1821C94.308 51.1894 93.2279 52.5148 92.8452 53.9297C92.5962 54.8515 92.6095 55.1776 92.8966 55.1813C93.1277 55.1843 93.0905 55.3096 92.804 55.4911C92.4193 55.7348 92.502 55.8767 93.2189 56.2042C94.3973 56.7417 94.3847 57.3165 93.2017 56.9944C92.0542 56.6819 91.5317 56.7071 89.2232 57.1872C87.527 57.5399 87.0979 57.8334 84.3492 60.5195C82.6916 62.1395 80.9752 63.7318 80.5347 64.0579C80.0946 64.3837 79.3358 65.0246 78.8488 65.4817C78.3619 65.9388 77.5653 66.4624 77.0783 66.6453C74.5149 67.6077 68.0775 74.743 68.7662 75.8587C68.901 76.0771 68.8373 76.1276 68.6069 75.9847C68.3746 75.841 68.1004 76.0704 67.9122 76.5661C67.7412 77.0162 67.4302 77.4906 67.2214 77.6199C66.2127 78.2442 64.5424 84.0917 65.3693 84.103C65.5704 84.106 65.5107 84.25 65.2368 84.4235C64.8342 84.6788 64.7313 85.6778 64.6991 89.6543C64.6609 94.3526 64.4953 97.4639 64.0459 101.924C63.8145 104.222 64.2394 105.481 65.1303 105.139C65.4974 104.998 65.5986 105.057 65.4377 105.317C65.276 105.579 65.5017 105.705 66.13 105.701C67.5109 105.694 67.9337 105.284 68.2252 103.67C68.508 102.105 68.4399 98.1656 68.1246 97.8495C68.0187 97.7438 68.2219 97.3455 68.576 96.9649C69.1177 96.3828 69.22 95.7811 69.22 93.1772C69.22 91.1101 69.0962 90.0819 68.8475 90.0819C68.5823 90.0819 68.5764 89.9592 68.8276 89.656C69.0215 89.422 69.1752 88.6368 69.1688 87.9107C69.1629 87.185 69.3268 86.1548 69.5336 85.6216C69.8267 84.8653 69.8154 84.592 69.4819 84.38C69.2057 84.2048 69.1881 84.1064 69.4324 84.103C69.6402 84.1004 70.0113 83.4172 70.2566 82.5851C70.5019 81.7534 71.2653 80.3907 71.9527 79.5573C72.6405 78.7236 73.2031 77.8479 73.2031 77.6109C73.2031 76.8553 78.25 71.8023 79.9063 70.8994C80.7836 70.4214 81.5013 69.8396 81.5013 69.6066C81.5013 69.3739 81.7874 69.0923 82.1369 68.9813C82.4864 68.8702 84.167 67.4351 85.8711 65.7922C89.896 61.9121 89.6036 62.1464 91.0339 61.6541C92.2039 61.2512 92.3194 61.2751 93.0623 62.0783C93.7228 62.792 93.8167 63.1494 93.6425 64.289C93.5283 65.0363 92.9826 66.2989 92.4303 67.094C91.878 67.8896 91.4763 68.6917 91.5381 68.8769C91.5995 69.0617 91.1962 69.7043 90.6415 70.3047C87.1188 74.1181 85.255 77.4494 86.6445 77.4494C86.8888 77.4494 87.1384 77.588 87.1994 77.7572C87.2602 77.9264 87.7169 78.1661 88.2145 78.2897C88.9464 78.4716 89.2946 78.3286 90.0401 77.5398C91.7687 75.7104 94.3558 72.3911 94.1915 72.2135C93.9704 71.9748 94.157 71.4526 94.4079 71.6078C94.5692 71.7079 94.8862 71.3426 95.1119 70.7964C95.338 70.2502 95.633 69.8034 95.7681 69.8034C96.3792 69.8034 98.1122 65.772 98.308 63.894C98.4932 62.1192 98.4139 61.7199 97.5635 60.1552C97.0397 59.1914 96.199 58.0977 95.6948 57.7244C94.4886 56.8315 94.5387 56.1034 95.8992 54.7408C96.7971 53.8416 96.9538 53.4992 96.6872 53.0218C96.4469 52.592 96.4592 52.4906 96.7307 52.6588C98.0674 53.4862 99.5348 50.3806 98.6496 48.5981C98.3568 48.009 98.1889 46.3232 98.1647 43.7333C98.1225 39.2258 98.3957 38.4406 100.489 37.0533C102.077 36.0008 102.399 36.0151 102.469 37.1418C102.501 37.6447 102.554 38.3551 102.588 38.7208C102.623 39.0865 102.672 39.637 102.697 39.9442C102.723 40.2517 103.081 40.5678 103.491 40.6469C104.139 40.7719 104.15 40.7972 103.574 40.8364C102.942 40.8796 102.912 41.1113 102.931 45.785C102.942 48.4821 103.122 51.2868 103.33 52.0182C103.539 52.7495 103.606 53.8715 103.479 54.5114C103.152 56.1656 103.301 60.7353 103.761 63.2102C103.977 64.3681 104.134 65.9395 104.111 66.7021C104.088 67.4651 104.225 68.4996 104.415 69.0019C104.618 69.5358 104.637 69.9949 104.462 70.1082C104.297 70.2149 104.048 70.676 103.91 71.1331C103.771 71.5902 103.363 72.2454 103.003 72.5892C102.477 73.0912 102.436 73.2703 102.795 73.4984C103.041 73.6546 103.091 73.7846 102.906 73.7876C102.721 73.7903 102.423 74.0652 102.242 74.398C101.154 76.4089 99.7635 78.3523 98.6871 79.3672C98.007 80.0078 97.52 80.6444 97.6047 80.7817C97.689 80.9187 97.536 81.2155 97.2641 81.4416C96.9923 81.6676 96.7699 81.7444 96.7699 81.6124C96.7699 81.4804 96.1024 82.1729 95.2862 83.1509C94.3279 84.2992 93.8655 85.1352 93.9807 85.5109C94.0879 85.8596 93.984 86.095 93.7218 86.0986C92.7367 86.1116 88.0004 91.4485 86.6458 94.0714C86.3155 94.7113 85.7589 95.6225 85.4087 96.0969C84.8746 96.8203 84.7754 97.5091 84.792 100.366C84.8238 105.799 85.4117 106.945 88.0127 106.646C89.2056 106.509 89.3477 105.785 89.3208 99.9741C89.3019 95.8157 89.3112 95.7611 90.0875 95.566C90.5197 95.4573 90.7972 95.2921 90.7039 95.1987C90.611 95.1053 91.1905 94.3812 91.9925 93.5894C92.7944 92.7975 93.4506 92.0475 93.4506 91.9225C93.4506 91.7975 94.0441 91.1619 94.7694 90.5097C95.4946 89.8578 96.0084 89.1956 95.9115 89.038C95.8143 88.8808 95.9105 88.7521 96.1256 88.7521C97.1413 88.7521 100.159 84.8756 103.74 78.9693C104.379 77.9158 105.462 76.2077 106.146 75.1739C107.513 73.1088 108.06 71.2149 107.407 70.8103C107.128 70.6375 107.208 70.5072 107.667 70.3868C108.189 70.2498 108.379 69.8233 108.56 68.3713C108.686 67.3583 108.697 66.3787 108.583 66.1948C108.469 66.0107 108.505 65.7809 108.661 65.6839C108.818 65.5868 108.967 63.6374 108.991 61.3516C109.03 57.8494 108.953 57.1486 108.503 56.897C108.138 56.6919 108.088 56.525 108.345 56.3661C109.028 55.9432 108.733 55.6148 107.723 55.6749C107.176 55.7075 106.728 55.6088 106.728 55.4552C106.728 55.302 107.163 55.1763 107.695 55.1763H108.662L108.669 51.6026C108.675 48.2141 108.292 42.8895 107.886 40.7154C107.784 40.1669 107.713 39.1261 107.729 38.4023C107.769 36.6375 107.394 34.5245 107.077 34.7213C106.935 34.8084 106.935 34.2503 107.076 33.4807C107.448 31.4402 107.038 30.9023 105.139 30.9385C104.279 30.9552 103.103 31.1051 102.527 31.2723ZM16.4436 32.2071C16.4436 32.373 16.1449 32.4302 15.7797 32.3348C15.4146 32.239 15.1159 32.1034 15.1159 32.0333C15.1159 31.9635 15.4146 31.9059 15.7797 31.9059C16.1449 31.9059 16.4436 32.0416 16.4436 32.2071ZM74.0329 35.2303C74.1458 35.4131 74.005 35.5627 73.7206 35.5627C73.4361 35.5627 73.2031 35.4131 73.2031 35.2303C73.2031 35.0474 73.3435 34.8978 73.5154 34.8978C73.6874 34.8978 73.92 35.0474 74.0329 35.2303ZM24.4098 37.7039C24.4098 37.7847 24.2605 37.9429 24.0779 38.0559C23.8954 38.169 23.746 38.1028 23.746 37.9093C23.746 37.7159 23.8954 37.5573 24.0779 37.5573C24.2605 37.5573 24.4098 37.6231 24.4098 37.7039ZM96.348 43.4095C96.2378 43.5198 95.9514 43.5318 95.712 43.4357C95.4472 43.3297 95.5258 43.2509 95.9125 43.2349C96.2624 43.2206 96.4582 43.2991 96.348 43.4095ZM24.4098 58.7457C23.9534 58.8308 23.4735 59.0721 23.343 59.2822C23.2129 59.4923 22.9517 59.6828 22.7622 59.7057C22.573 59.7286 22.2789 59.7659 22.1086 59.7888C21.7959 59.8307 21.2127 61.2678 21.4567 61.3951C21.5291 61.433 21.3438 61.6574 21.0444 61.8938C20.7454 62.1302 20.3998 62.8987 20.2767 63.6015C20.0991 64.6171 20.1764 64.9761 20.6548 65.3514C21.1002 65.7012 21.1271 65.8009 20.7586 65.7357C20.429 65.6776 20.2933 65.873 20.357 66.3128C20.4758 67.1323 24.0331 70.449 24.8052 70.4603C25.3897 70.4686 25.8355 70.9722 25.9543 71.7584C25.9921 72.0107 26.2052 72.3847 26.427 72.5895C26.7343 72.8727 26.7672 72.8425 26.5637 72.4629C26.4167 72.1886 26.6663 72.3382 27.118 72.7953C27.5698 73.2524 27.8835 73.7387 27.8147 73.8757C27.746 74.0127 27.9601 74.1274 28.2904 74.13C28.7368 74.134 28.7793 74.2058 28.4567 74.4109C28.1327 74.6167 28.3223 74.9508 29.2035 75.7257C29.8531 76.2968 30.3875 76.9557 30.3915 77.1897C30.3951 77.4241 31.0464 78.3576 31.8387 79.2648C33.2587 80.8904 33.2972 80.9094 34.5701 80.5945C35.8022 80.2897 35.8613 80.2142 35.8613 78.9453C35.8613 77.7801 35.769 77.6189 35.1145 77.6418C34.7039 77.6565 34.3676 77.5444 34.3676 77.3925C34.3676 77.2409 34.517 77.1169 34.6996 77.1169C35.2695 77.1169 35.0627 76.2892 34.3676 75.7872C34.0025 75.5236 33.7038 75.1772 33.7038 75.0173C33.7038 74.4053 32.308 72.7983 31.9625 73.012C31.7275 73.1573 31.6767 73.035 31.8184 72.6653C32.0266 72.1218 31.8533 71.9004 29.6928 69.9464C29.4037 69.6851 28.9556 69.4686 28.697 69.466C28.3226 69.4616 28.3146 69.4051 28.6585 69.1867C29.2566 68.8068 25.6977 66.0552 24.9701 66.3348C24.6123 66.4724 24.4434 66.3431 24.4364 65.9259C24.4304 65.5901 24.3717 64.8348 24.306 64.2474C24.2017 63.3186 24.3265 63.1125 25.2609 62.6684C26.5471 62.057 26.9484 62.0314 27.2627 62.5414C27.4098 62.7791 27.354 62.8349 27.1167 62.6876C26.9059 62.5573 26.7333 62.6092 26.7333 62.8027C26.7333 62.9962 26.9302 63.1547 27.1705 63.1547C27.7185 63.1547 30.9269 64.787 32.4169 65.8238C33.0333 66.253 34.0918 67.1928 34.7693 67.9122C35.6074 68.8024 36.1753 69.1528 36.5487 69.0092C36.9451 68.8569 37.0436 68.9377 36.9046 69.3011C36.7904 69.5989 36.8976 69.8034 37.1684 69.8034C37.4194 69.8034 38.6299 70.8462 39.8587 72.1211C41.0872 73.3957 43.0492 75.0628 44.2186 75.8257C45.9028 76.9248 46.6138 77.6688 47.6421 79.4087C48.8871 81.5154 49.8441 84.49 49.4713 85.094C49.3734 85.2522 49.4209 85.4607 49.5765 85.5571C49.8046 85.6984 49.853 87.2562 49.629 87.2562C49.5948 87.2562 49.5042 88.658 49.4278 90.3711C49.3369 92.4162 49.4199 93.6439 49.6695 93.9447C49.9556 94.2901 49.9539 94.4035 49.6635 94.4035C49.4421 94.4035 49.2695 94.9347 49.2592 95.6501C49.2489 96.3359 49.1716 98.8328 49.0866 101.199C49.002 103.566 49.0142 105.828 49.1142 106.226C49.3153 107.029 50.5657 107.423 52.0159 107.141C52.8683 106.975 52.9088 106.867 53.097 104.26C53.2042 102.77 53.3705 99.1198 53.4664 96.1481C53.5623 93.1768 53.7266 90.5213 53.8315 90.2474C53.9659 89.8967 53.7907 89.7381 53.24 89.7109C52.7322 89.6859 52.6502 89.6211 53.0067 89.5264C54.0609 89.2461 54.1113 82.6576 53.0817 79.7043C52.3259 77.5355 50.3237 74.1443 49.5111 73.6566C49.1789 73.4571 48.4211 72.8452 47.8273 72.2966C46.4959 71.067 44.4473 69.8034 43.7851 69.8034C43.5129 69.8034 43.3758 69.6651 43.48 69.4962C43.7496 69.0597 41.7447 67.7091 41.1605 67.9334C40.893 68.0362 40.6743 67.988 40.6743 67.8261C40.6743 67.6642 40.8611 67.4687 41.0892 67.3916C41.3175 67.3141 40.9886 66.9833 40.3586 66.6559C39.7286 66.3284 39.0329 65.893 38.8128 65.6879C35.6728 62.7654 34.7507 62.0437 33.2467 61.3313C31.3488 60.4321 30.8346 60.3254 30.661 60.7948C30.6003 60.9596 30.3314 60.8566 30.0636 60.5654C29.6287 60.0933 29.6467 60.0611 30.2295 60.2665C30.8741 60.4939 30.8745 60.4906 30.2382 59.9972C29.8837 59.7226 29.3984 59.4793 29.1594 59.4564C28.5792 59.4009 28.3873 59.3424 27.2926 58.8883C26.3417 58.4937 25.8846 58.4711 24.4098 58.7457ZM14.1201 59.4979C14.1201 59.6808 13.9618 59.8304 13.7686 59.8304C13.5754 59.8304 13.5094 59.6808 13.6222 59.4979C13.7351 59.3151 13.8931 59.1655 13.9737 59.1655C14.0544 59.1655 14.1201 59.3151 14.1201 59.4979ZM82.497 67.9554C82.497 68.0362 82.3477 68.1944 82.1651 68.3074C81.9825 68.4205 81.8332 68.3543 81.8332 68.1608C81.8332 67.9673 81.9825 67.8088 82.1651 67.8088C82.3477 67.8088 82.497 67.8746 82.497 67.9554ZM25.2397 84.7629C25.3525 84.9458 25.2207 85.0953 24.9469 85.0953C24.6731 85.0953 24.3567 84.9458 24.2439 84.7629C24.131 84.5801 24.2628 84.4305 24.5366 84.4305C24.8105 84.4305 25.1268 84.5801 25.2397 84.7629ZM50.964 90.4143C50.964 90.5971 50.6277 90.7444 50.2172 90.7417C49.6134 90.7374 49.5656 90.6749 49.9682 90.4143C50.6118 89.9977 50.964 89.9977 50.964 90.4143Z" fill="#EFEDEB"></path></svg> 