<?xml version="1.0" encoding="UTF-8"?> <svg xmlns="http://www.w3.org/2000/svg" width="120" height="120" viewBox="0 0 120 120" fill="none"><path fill-rule="evenodd" clip-rule="evenodd" d="M16.1169 23.4405C15.6124 23.7226 15.3258 24.0805 15.4802 24.2361C15.6345 24.3918 15.5288 24.519 15.245 24.519C14.9271 24.519 14.8097 24.8299 14.9395 25.3301C15.0553 25.7764 15.005 26.0512 14.8282 25.9409C14.3816 25.6625 13.9334 27.6616 14.2308 28.6068C14.3768 29.0709 14.2851 29.383 14.0029 29.383C13.7433 29.383 13.6351 29.6566 13.7626 29.991C13.8896 30.3254 13.802 30.599 13.5676 30.599C13.3124 30.599 13.1829 31.3716 13.2456 32.5243C13.3031 33.5831 13.1998 34.7954 13.0165 35.2178C12.7846 35.7504 12.8782 36.1298 13.3216 36.4569C13.761 36.7807 13.8446 37.1115 13.5889 37.5131C13.3839 37.8346 13.3236 38.8475 13.4542 39.7644L13.6918 41.4311L11.7033 41.2386C9.67975 41.0424 7.76717 41.6629 8.2029 42.3739C8.33274 42.5859 8.17799 42.7589 7.85923 42.7589C7.14291 42.7589 6.93951 43.5895 7.01468 46.2043C7.08141 48.5365 8.02202 52.4869 8.51042 52.4869C8.69211 52.4869 8.73914 52.6527 8.61493 52.8557C8.33999 53.3036 9.75693 56.7465 10.3748 57.1316C10.6175 57.2832 10.7192 57.5653 10.6003 57.7594C10.4817 57.9532 10.7048 58.2924 11.0963 58.5133C11.4878 58.7342 11.7632 59.0192 11.7077 59.1465C11.4589 59.7188 11.6864 60.1878 12.7926 61.3819L13.978 62.6615L12.9244 63.5528C11.0818 65.1121 10.4013 65.8511 10.4013 66.2921C10.4013 66.528 10.6276 66.5843 10.9037 66.4169C11.2945 66.1802 11.3017 66.243 10.9347 66.7006C9.53625 68.446 12.7034 75.4059 16.6202 79.1945C17.9531 80.4839 19.315 81.6367 19.6466 81.7566C20.1008 81.9208 20.137 82.0959 19.7925 82.466C19.4705 82.8121 19.2555 82.8271 19.0654 82.5166C18.7261 81.9634 17.2348 81.9346 17.2348 82.4814C17.2348 82.7043 16.986 82.8867 16.6821 82.8867C15.8448 82.8867 16.0072 84.9166 16.947 86.1983C17.3968 86.8115 17.9165 87.2189 18.1026 87.103C18.2887 86.987 18.4435 87.1309 18.4471 87.4228C18.4576 88.2784 24.2202 91.7813 26.245 92.1627C27.2543 92.3528 28.3075 92.6917 28.5864 92.9158C30.0874 94.1225 39.596 94.1825 41.7932 92.9985C42.1461 92.8088 42.8982 92.5684 43.465 92.4647C45.0234 92.1797 46.5529 91.0185 47.6246 89.3063C48.1548 88.4596 48.5885 87.6919 48.5885 87.5999C48.5885 87.5083 48.0912 87.2959 47.4831 87.1285C46.4038 86.831 46.3993 86.818 47.299 86.5777L48.2207 86.332L47.252 85.009C45.954 83.2357 41.6167 80.458 39.6061 80.1118C38.1706 79.8646 37.9443 79.67 37.6412 78.4208C37.4527 77.6446 37.2392 76.827 37.1661 76.6041C37.0933 76.3811 37.0029 76.0642 36.9647 75.9C36.4144 73.511 35.479 71.5395 33.9049 69.4528L31.9919 66.9159L31.9079 62.4374C31.84 58.8173 31.6261 57.3914 30.7921 54.9979L29.7606 52.0366L30.7334 51.6637C31.7379 51.2786 32.0928 50.0598 31.2033 50.0488C30.8057 50.0439 30.8069 49.9746 31.2089 49.7173C32.0341 49.1891 32.8654 44.242 32.6347 41.232C32.4044 38.2241 30.45 32.8486 29.4463 32.4603C29.1134 32.3314 28.9619 32.029 29.1094 31.7878C29.2573 31.5467 29.0326 30.9529 28.6106 30.4677C28.1885 29.9825 27.4006 28.897 26.8599 28.0555C26.3193 27.2137 25.4699 26.4188 24.9727 26.2887C24.4755 26.159 24.0683 25.8797 24.0683 25.6686C24.0683 25.1627 20.2291 23.4498 18.4407 23.1575C17.6271 23.0246 16.6471 23.1438 16.1169 23.4405ZM102.405 23.1567C102.379 23.3484 102.381 23.6504 102.411 23.8267C102.44 24.0035 101.915 24.3804 101.245 24.6646C100.576 24.9487 100.129 25.2839 100.254 25.4096C100.378 25.5348 100.019 25.7541 99.4566 25.8968C98.8935 26.039 98.4328 26.3516 98.4328 26.5907C98.4328 26.8303 98.0735 27.4865 97.6345 28.0495C97.1952 28.6125 96.9347 29.2338 97.0553 29.4308C97.1759 29.6274 97.1216 29.7883 96.9355 29.7883C96.5327 29.7883 94.992 32.2888 95.125 32.727C95.1757 32.8944 95.0362 33.031 94.8151 33.031C94.594 33.031 94.4131 33.3046 94.4131 33.639C94.4131 33.9734 94.2322 34.247 94.0112 34.247C93.7901 34.247 93.6092 34.5753 93.6092 34.9766C93.6092 35.3779 93.4488 35.8797 93.2526 36.0912C92.827 36.5517 92.0536 41.3237 92.1725 42.7589C92.3587 45.0057 92.9186 47.6456 93.2534 47.8544C93.4492 47.9764 93.6092 48.4911 93.6092 48.9986C93.6092 49.8611 95.1749 51.6389 96.458 52.2327C96.7703 52.3774 96.6119 52.418 96.1058 52.3227C95.2448 52.1602 93.6092 53.3697 93.6092 54.1682C93.6092 54.3401 93.1445 54.9152 92.5761 55.4466C91.4454 56.5037 91.1081 58.3378 91.195 62.9586C91.2456 65.6435 91.7211 67.4416 92.5291 68.0005C92.841 68.2166 92.7281 68.3086 92.2023 68.2664C91.7601 68.2307 91.1728 68.2226 90.8967 68.2482C90.3407 68.3001 87.3791 70.9967 87.3779 71.4519C87.3779 71.6104 86.9525 72.3412 86.4328 73.0765L85.4882 74.4125L86.4742 75.3058C87.5985 76.324 88.4547 78.1123 87.3923 77.2234C87.0579 76.9438 86.8613 76.5895 86.955 76.4367C87.049 76.2835 86.7713 75.9353 86.3383 75.6625C85.657 75.2337 85.5047 75.2908 85.2088 76.0881C84.9881 76.6827 85.0271 77.1152 85.3189 77.3073C85.6284 77.5112 85.5979 77.6069 85.2213 77.6113C84.8591 77.6154 84.7349 77.949 84.8567 78.5918C85.0178 79.441 84.7526 79.7024 82.7934 80.6242C81.5569 81.2058 80.1352 81.9257 79.6335 82.224C78.5534 82.8664 77.87 83.5523 78.7363 83.1242C79.0679 82.9605 78.9879 83.1137 78.559 83.4647C78.1297 83.8157 77.5625 84.1027 77.2984 84.1027C76.8357 84.1027 75.7175 86.0888 75.4723 87.3454C75.2564 88.4535 75.9201 90.1527 76.7425 90.5965C77.1883 90.8373 77.4464 91.2078 77.3165 91.4197C77.1863 91.6317 77.5432 91.9831 78.1092 92.2C78.6751 92.4168 79.1382 92.8583 79.1382 93.1805C79.1382 93.5027 79.6624 93.8825 80.3031 94.0244C80.9499 94.1675 81.5541 94.6129 81.661 95.026C81.7912 95.5278 82.3914 95.861 83.5089 96.0515C84.4189 96.2063 85.2474 96.4697 85.3499 96.6367C85.452 96.8041 86.184 96.9651 86.9763 96.9951C87.7686 97.0255 88.3321 96.912 88.2288 96.743C88.1251 96.5743 88.9769 96.424 90.1213 96.409C91.2661 96.3944 92.6545 96.165 93.2072 95.8995C95.2263 94.9303 96.2196 94.2283 96.1239 93.8383C96.0696 93.6191 96.7027 93.082 97.5308 92.6451C98.3585 92.2081 99.6689 91.093 100.443 90.1669C101.216 89.2411 102.257 88.0186 102.754 87.4499C103.891 86.1504 103.94 84.2867 102.855 83.6033C102.004 83.0675 101.758 82.076 102.476 82.076C102.71 82.076 102.772 81.8483 102.613 81.5694C102.454 81.2909 102.459 81.1847 102.623 81.3335C103.104 81.7684 105.336 80.8171 105.127 80.2671C105.003 79.9428 105.239 79.8289 105.807 79.9379C106.431 80.0583 107.382 79.4608 109.187 77.814C110.568 76.5538 111.698 75.2645 111.698 74.9487C111.698 74.633 111.867 74.3748 112.073 74.3748C112.595 74.3748 112.882 73.2937 113.092 70.5294C113.247 68.4889 113.154 68.0544 112.424 67.4156C111.957 67.0075 111.411 66.6735 111.211 66.6735C111.01 66.6735 110.942 66.5182 111.058 66.3281C111.278 65.969 108.711 65.0521 107.485 65.0521C107.015 65.0521 107.549 64.3274 109.097 62.8633C110.88 61.176 111.36 60.4792 111.19 59.8226C111.068 59.3544 111.134 59.0743 111.337 59.2004C111.75 59.4578 112.514 57.7363 112.214 57.224C112.108 57.0428 112.297 56.5868 112.634 56.2107C113.497 55.248 114.189 50.7444 113.953 47.6229C113.844 46.1739 113.743 44.8213 113.731 44.6166C113.718 44.4123 113.602 44.3515 113.473 44.4816C113.344 44.6117 112.892 44.3685 112.468 43.9413C112.044 43.5137 111.472 43.1647 111.195 43.1647C110.817 43.1651 110.727 42.1177 110.83 38.9103C110.949 35.2246 110.877 34.6203 110.294 34.3945C109.805 34.2057 109.754 34.0508 110.108 33.8303C110.473 33.6025 110.327 32.8263 109.527 30.7453C108.357 27.7029 107.885 26.947 106.673 26.1817C106.067 25.7987 106.042 25.7281 106.573 25.8943C107.023 26.0354 107.276 25.9004 107.276 25.5198C107.276 25.1923 107.084 24.9244 106.851 24.9244C106.617 24.9244 106.531 24.7513 106.661 24.5393C106.791 24.3277 106.572 23.9791 106.175 23.7647C105.095 23.1818 102.459 22.7567 102.405 23.1567ZM105.907 24.1766C106.086 24.4664 106.018 24.5344 105.731 24.3549C105.475 24.196 105.266 24.2698 105.266 24.519C105.266 24.7683 105.066 24.8474 104.821 24.695C104.511 24.5016 104.542 24.3123 104.922 24.0691C105.612 23.6285 105.569 23.6237 105.907 24.1766ZM21.5049 29.9116C23.2302 31.2423 25.068 33.8854 25.5142 35.6774C25.6525 36.2339 26.0476 36.8484 26.3921 37.0425C27.194 37.4953 27.5807 44.1549 26.9167 46.0762C26.5726 47.0713 26.5866 47.4405 26.9778 47.691C27.3516 47.9302 27.358 48.0173 27.0027 48.0222C26.7374 48.0254 26.3756 47.7867 26.1987 47.4912C25.8659 46.9347 24.4964 46.2298 23.9678 46.3425C23.8018 46.3781 23.7113 46.2423 23.7668 46.0409C23.8745 45.6481 21.0708 43.5696 20.4329 43.5696C20.2214 43.5696 20.0486 43.752 20.0486 43.9749C20.0486 44.1979 19.8456 44.3803 19.5976 44.3803C19.2655 44.3803 19.2647 44.2364 19.594 43.8363C19.84 43.5372 19.9187 43.1687 19.7688 43.0175C19.6189 42.8664 19.4528 42.427 19.3998 42.0415C19.0718 39.661 18.8318 38.6319 18.4258 37.8674C18.1742 37.3928 17.8984 35.7001 17.8132 34.1059C17.728 32.5114 17.6432 31.0246 17.6243 30.8017C17.572 30.1896 17.8209 29.244 18.1911 28.6461C18.6063 27.9757 19.3765 28.27 21.5049 29.9116ZM104.226 30.8377C104.643 32.3067 105.184 33.5855 105.427 33.6803C105.944 33.8814 105.987 39.3878 105.489 41.5373C105.309 42.3143 104.89 43.1493 104.56 43.3933C104.065 43.7577 104.046 44.0013 104.452 44.7653C104.723 45.2761 104.759 45.5784 104.533 45.4374C104.306 45.2963 103.65 45.3968 103.074 45.6615C102.318 46.0089 102.17 46.2334 102.542 46.471C102.872 46.6826 102.626 46.8066 101.85 46.8187C100.683 46.8374 100.67 46.8585 101.448 47.46C102.218 48.0554 102.204 48.07 101.13 47.8041C100.344 47.61 99.7862 47.7295 99.2669 48.2033C98.5606 48.8478 98.5136 48.8069 98.2785 47.3396C97.6976 43.72 98.0831 38.5403 99.078 36.5979C99.3863 35.9956 99.6387 35.2405 99.6387 34.9194C99.6387 34.5984 99.9901 33.5446 100.419 32.5778C100.986 31.3015 101.072 30.7409 100.734 30.5301C100.44 30.3469 100.668 30.0871 101.353 29.8244C102.086 29.5435 102.36 29.2079 102.201 28.788C102.041 28.3668 102.206 28.167 102.716 28.167C103.297 28.167 103.64 28.7722 104.226 30.8377ZM59.5221 33.9227C59.2568 34.1902 59.0397 34.6239 59.0397 34.8866C59.0397 35.1489 58.7704 35.5891 58.4412 35.8647C58.112 36.1403 57.9323 36.512 58.042 36.6907C58.1517 36.8699 58.081 37.4418 57.8848 37.9623C57.6887 38.4827 57.513 39.0518 57.4945 39.2269C57.4757 39.402 57.1826 39.8252 56.8434 40.1677C56.2255 40.7907 56.0643 41.4907 56.2122 42.9045C56.2657 43.4136 56.1174 43.5684 55.756 43.3811C55.4618 43.2287 55.5828 43.4103 56.0249 43.784C56.82 44.4565 56.8188 44.4609 55.9244 44.1922C55.2805 43.9984 55.02 44.0884 55.02 44.5039C55.02 44.8253 54.6498 45.9319 54.1972 46.9634C53.4688 48.6237 53.2268 48.8405 52.0868 48.8535C46.8053 48.9131 41.5267 49.3646 41.265 49.7793C41.0648 50.0971 40.9611 50.0192 40.9571 49.5482C40.9527 49.0087 40.5905 48.8276 39.4437 48.7911C38.6148 48.7643 37.6649 48.7769 37.3333 48.819C36.623 48.9086 35.6696 50.0411 35.9369 50.4777C36.0394 50.6443 35.8537 50.8846 35.5244 51.0119C35.0417 51.1992 35.0135 51.4363 35.3781 52.2433C35.7994 53.1751 37.923 54.4345 38.6694 54.1945C38.8519 54.1362 38.8966 54.2586 38.7692 54.4665C38.6413 54.6749 39.1253 55.3202 39.8444 55.9014C41.8137 57.4923 41.8732 57.5462 43.0505 58.8105C44.8486 60.7406 45.5206 61.3061 46.6128 61.8071C47.6197 62.2692 47.6414 62.3551 47.3038 64.5799C47.1124 65.843 46.706 67.4233 46.4013 68.0921C45.6553 69.7285 44.1668 74.3723 44.1668 75.0638C44.1668 75.3694 43.8746 76.069 43.5176 76.6183C42.8053 77.7147 43.0453 78.343 44.9442 80.3534C46.054 81.528 46.3089 81.5062 48.4438 80.0535C49.423 79.3871 50.6703 78.7288 51.2154 78.591C51.7604 78.4532 52.2062 78.0649 52.2062 77.7289C52.2062 77.3337 52.4691 77.1869 52.9499 77.3138C53.3591 77.4216 54.1276 77.1732 54.6582 76.7617C55.1888 76.3507 55.8493 76.0099 56.1254 76.005C56.402 76.0001 56.6279 75.8348 56.6279 75.6382C56.6279 75.4412 56.9442 75.1724 57.3313 75.0411C57.7184 74.9098 58.643 74.4445 59.3862 74.0071C60.6625 73.2565 60.779 73.2504 61.4744 73.9038C62.5421 74.907 69.6594 78.244 70.3954 78.0872C70.561 78.0515 70.6969 78.1966 70.6969 78.409C70.6969 78.9992 73.6096 79.7065 74.0815 79.2306C74.2981 79.0121 74.7901 78.8334 75.1752 78.8334C75.5603 78.8334 76.0013 78.6271 76.156 78.375C76.9857 77.0212 76.3156 69.6377 75.3284 69.2554C75.0325 69.1411 74.8854 68.5571 74.969 67.8311C75.0474 67.1542 74.8142 65.6849 74.4512 64.5662C73.837 62.6729 73.8379 62.4516 74.4633 61.3847C75.0956 60.3049 75.0932 60.2133 74.4231 59.8201C74.032 59.5903 73.9271 59.3966 74.1904 59.3897C74.4537 59.3832 74.7708 59.5437 74.8954 59.7468C75.3271 60.4512 76.2014 59.9466 78.3677 57.7412C79.5651 56.5224 81.2237 55.0145 82.0525 54.3907C83.1768 53.5444 83.5599 52.9636 83.5599 52.1043C83.5599 51.4602 83.297 50.8506 82.9638 50.7217C82.6358 50.5948 82.4637 50.2385 82.5811 49.9296C82.7495 49.4874 82.0103 49.3123 79.096 49.1036C77.0617 48.9581 74.8476 48.8389 74.1759 48.8389C73.0162 48.8389 72.9941 48.8685 73.7353 49.4339C74.7515 50.2089 74.3677 50.2053 72.5077 49.4218C71.6813 49.0736 70.7664 48.8807 70.475 48.9938C70.1835 49.1064 69.8801 49.0022 69.8005 48.7623C69.6148 48.1997 67.8674 48.738 67.9916 49.3196C68.0427 49.5567 67.8292 49.8441 67.5176 49.958C67.1301 50.0999 67.0285 49.9621 67.1957 49.5227C67.3661 49.0748 67.2636 48.9484 66.8576 49.1056C66.442 49.2665 66.2752 49.0322 66.2752 48.2868C66.2752 47.6562 66.0762 47.2918 65.7727 47.3663C65.4966 47.4344 65.4061 47.4134 65.5717 47.3201C66.0416 47.055 65.9275 45.6417 65.3225 44.2388C65.0194 43.5364 64.5463 42.1408 64.271 41.1376C63.9956 40.1344 63.5928 38.8232 63.3762 38.2233C63.1595 37.6238 63.1016 36.9384 63.2475 36.6997C63.6539 36.0369 63.0811 34.6523 62.4006 34.6523C62.0681 34.6523 61.5247 34.3787 61.1931 34.0443C60.4639 33.3091 60.1532 33.2864 59.5221 33.9227ZM16.3219 34.8971C16.1885 35.0317 15.8415 35.0463 15.5517 34.9292C15.231 34.7999 15.3262 34.7038 15.7945 34.6843C16.2182 34.6669 16.4554 34.7626 16.3219 34.8971ZM60.6018 45.4382C60.974 45.8484 58.4943 45.1901 58.0617 44.7641C57.8455 44.5509 58.2515 44.5574 59.0208 44.7803C59.7544 44.9923 60.4659 45.2882 60.6018 45.4382ZM113.081 45.5586C113.206 45.7604 112.945 45.8305 112.502 45.7138C111.564 45.4661 111.445 45.1909 112.277 45.1909C112.596 45.1909 112.958 45.3563 113.081 45.5586ZM12.6455 46.3056C12.3018 46.6521 17.5865 48.0911 19.5119 48.1754C20.4365 48.2155 20.6773 48.361 20.3927 48.7068C20.1161 49.0424 20.5358 49.5795 21.818 50.5308C22.8173 51.2721 23.6422 52.013 23.6506 52.1768C23.6591 52.3406 24.209 53.364 24.8722 54.4511C25.5355 55.5378 26.0781 56.781 26.0781 57.2135C26.0781 57.6455 26.2775 58.2004 26.5211 58.4461C26.9946 58.9236 27.1848 62.8552 26.7555 63.2885C26.614 63.4308 25.5447 63.2622 24.379 62.9136C21.4735 62.0446 18.7148 61.6786 19.0376 62.2051C19.1775 62.4333 19.1003 62.6202 18.8664 62.6202C18.6324 62.6202 18.4407 62.3903 18.4407 62.109C18.4407 61.8281 17.6267 60.3746 16.6318 58.8794C15.6369 57.3837 14.823 55.9723 14.823 55.7421C14.823 55.5123 14.6312 55.3242 14.3973 55.3242C14.1633 55.3242 14.0833 55.1418 14.22 54.9189C14.3567 54.6959 14.2465 54.5135 13.9756 54.5135C13.7047 54.5135 13.5966 54.3992 13.7348 54.2594C13.8735 54.1196 13.7055 53.4564 13.3614 52.7856C12.7641 51.6207 11.2358 47.3169 11.2153 46.7405C11.2097 46.5897 11.522 46.383 11.9087 46.2809C12.2954 46.1791 12.6877 46.0746 12.7797 46.0486C12.8718 46.0227 12.8115 46.1382 12.6455 46.3056ZM61.4174 49.4116C62.4127 52.4885 63.6961 54.1759 65.3711 54.6092C65.8692 54.7381 66.1751 54.6777 66.0509 54.4758C65.9271 54.2736 66.1184 54.1082 66.4762 54.1082C66.8665 54.1082 67.0116 53.9205 66.8391 53.6388C66.6422 53.3174 66.8243 53.2416 67.418 53.3985C67.8943 53.5241 68.3787 53.4727 68.4941 53.2846C68.6094 53.0961 69.1071 53.0349 69.5999 53.148C70.0927 53.2611 71.4003 53.4447 72.5057 53.5558C73.6111 53.6664 74.6659 53.9059 74.85 54.0875C75.2737 54.5058 74.2909 56.1349 73.6148 56.1349C73.3366 56.1349 73.1087 56.4194 73.1087 56.7668C73.1087 57.1142 72.9712 57.3128 72.8028 57.2082C72.6344 57.1032 72.1697 57.2588 71.7697 57.5535C71.0687 58.0703 71.0687 58.1056 71.7742 58.536C72.4241 58.9325 72.3936 58.9706 71.5008 58.8757C70.9481 58.8174 70.4509 58.9061 70.3954 59.0735C70.3399 59.2409 69.9339 59.7415 69.493 60.1861C68.687 60.9988 68.6106 61.9311 69.263 62.987C69.5118 63.3891 69.4701 63.4657 69.1199 63.2476C68.5013 62.8617 68.9274 66.1838 69.7518 68.1736C70.0505 68.8947 70.2949 69.936 70.2949 70.4872C70.2949 71.0385 70.4758 71.6023 70.6969 71.7401C71.3123 72.1236 71.1748 72.7534 70.4758 72.7534C70.1333 72.7534 69.2743 72.4438 68.5664 72.0652C67.8589 71.6866 66.9597 71.4248 66.5678 71.4839C66.1759 71.5431 65.8808 71.4426 65.9118 71.2606C66.0509 70.4459 65.8278 70.2602 65.2703 70.7268C64.7843 71.1337 64.6661 71.1236 64.6605 70.6749C64.6492 69.7791 62.7266 68.1935 61.6513 68.1935C61.0753 68.1935 60.769 68.0192 60.9181 67.776C61.0588 67.5465 61.0102 67.4481 60.8104 67.5571C59.8445 68.0836 56.6062 69.5108 56.3779 69.5108C56.2356 69.5108 55.8267 69.8302 55.469 70.2201C55.1116 70.61 54.5646 70.9846 54.2539 71.0519C53.9431 71.1191 52.9595 71.5293 52.0679 71.9639C51.1768 72.398 50.3909 72.7534 50.3218 72.7534C49.9656 72.7534 50.2973 71.2347 50.7993 70.5659C51.1169 70.1427 51.2813 69.6413 51.1647 69.4512C51.0482 69.2611 51.0948 68.8777 51.268 68.5988C51.4413 68.3203 51.6431 67.6503 51.7166 67.11C51.7902 66.5697 52.0346 65.7809 52.2597 65.357C52.7196 64.4904 52.408 61.7163 51.6808 60.2032C51.137 59.0711 49.0017 56.9755 48.3738 56.9573C47.8283 56.9419 46.4235 54.5346 46.7611 54.1945C46.9046 54.0498 48.2335 53.8869 49.7148 53.8322C52.0507 53.7462 53.6859 53.606 55.221 53.36C55.8629 53.257 58.0955 51.1509 58.5887 50.183C58.8367 49.6958 59.0397 48.6472 59.0397 47.8523C59.0397 46.7454 59.2045 46.4073 59.7432 46.4081C60.2621 46.4089 60.7015 47.1969 61.4174 49.4116ZM63.8634 47.5666C63.8634 47.7587 63.4111 47.8288 62.8584 47.7222C62.3057 47.6156 61.8535 47.4583 61.8535 47.3728C61.8535 47.2877 62.3057 47.2176 62.8584 47.2176C63.4111 47.2176 63.8634 47.3749 63.8634 47.5666ZM109.517 50.0119C109.416 51.0524 109.129 52.4451 108.879 53.1071C108.63 53.7694 108.408 54.4021 108.387 54.5135C108.218 55.3976 106.78 58.0991 106.194 58.6345C105.794 58.9997 104.78 59.9454 103.94 60.7362C103.1 61.5274 102.321 62.1711 102.21 62.167C101.966 62.1585 99.3847 64.1612 98.3609 65.1535C96.6786 66.7837 96.2107 65.9601 95.9 60.8221C95.7497 58.3338 95.8642 58.0561 97.9304 55.8998C98.9337 54.8524 99.0993 53.8865 98.3323 53.5501C98.0562 53.4289 98.3255 53.4329 98.9317 53.5594C99.7207 53.7235 100.103 53.6044 100.281 53.1379C100.417 52.7799 100.756 52.4869 101.034 52.4869C101.761 52.4869 104.218 50.2341 103.957 49.8064C103.837 49.6086 104.442 49.438 105.301 49.4275C106.369 49.4141 107.121 49.1295 107.676 48.5292C108.963 47.1365 109.736 47.7591 109.517 50.0119ZM38.4303 49.4891C38.2968 49.6236 37.9499 49.6382 37.6601 49.5211C37.3393 49.3918 37.4346 49.2957 37.9029 49.2762C38.3266 49.2588 38.5637 49.3545 38.4303 49.4891ZM96.624 50.8656C96.7606 51.0885 96.6011 51.2709 96.2694 51.2709C95.9378 51.2709 95.5547 51.0885 95.418 50.8656C95.2814 50.6426 95.4409 50.4602 95.7726 50.4602C96.1042 50.4602 96.4873 50.6426 96.624 50.8656ZM95.619 60.9988C95.619 61.2218 95.5394 61.4042 95.4417 61.4042C95.3441 61.4042 95.1527 61.2218 95.0161 60.9988C94.8794 60.7759 94.9594 60.5935 95.1934 60.5935C95.4273 60.5935 95.619 60.7759 95.619 60.9988ZM24.5896 68.8043C27.3496 69.8586 27.9164 70.2586 29.3349 72.1531C30.2209 73.3363 31.266 75.1883 31.6575 76.2685L32.3694 78.2327L30.9323 78.1618C28.537 78.0434 25.7336 78.4982 25.8438 78.9874C25.9001 79.2371 25.8707 79.3048 25.7779 79.1382C25.6854 78.9712 25.1271 78.9514 24.5374 79.0936C23.9477 79.2363 23.5924 79.2144 23.7475 79.045C23.9031 78.8755 23.27 78.0994 22.3406 77.3203C20.1704 75.5 16.8328 72.3651 16.8328 72.1471C16.8328 72.0547 16.3762 71.3003 15.8178 70.4706C15.2599 69.6413 14.866 68.7723 14.9431 68.5396C15.1526 67.9057 18.4443 67.1736 20.0486 67.4043C20.8224 67.5153 22.866 68.1452 24.5896 68.8043ZM93.5002 69.7556C93.3668 69.8902 93.0199 69.9048 92.7301 69.7876C92.4093 69.6583 92.5046 69.5623 92.9729 69.5428C93.3965 69.5254 93.6337 69.621 93.5002 69.7556ZM105.098 69.9161C107.959 69.9161 108.08 69.9546 108.08 70.867C108.08 71.8629 104.03 76.3957 103.13 76.4075C102.842 76.4116 102.892 76.5785 103.256 76.8311C103.758 77.178 103.724 77.2376 103.055 77.1837C101.698 77.0743 101.421 77.2056 102.051 77.662C102.566 78.0357 102.556 78.0677 101.977 77.8817C101.147 77.6142 98.0309 79.077 98.0309 79.7345C98.0309 80.0948 97.9175 80.0972 97.5674 79.7442C97.2647 79.439 96.8639 79.4061 96.4125 79.6497C96.0323 79.8548 95.2914 79.9087 94.7656 79.7697C94.2403 79.6307 92.5906 79.4394 91.1005 79.3445C88.597 79.1856 88.4213 79.1143 88.7944 78.4114C89.0167 77.9927 89.1601 77.5059 89.1131 77.33C88.7409 75.9272 92.5191 71.7401 94.1571 71.7401C94.7283 71.7401 94.9972 71.5026 94.9602 71.0308C94.9027 70.2975 95.4144 70.0649 95.7786 70.6591C95.8924 70.8451 96.5343 70.9157 97.2052 70.8164C97.8757 70.7171 98.3323 70.4852 98.2194 70.3012C98.0071 69.9546 100.634 69.5509 101.581 69.784C101.875 69.8569 103.458 69.9161 105.098 69.9161ZM47.7845 71.1321C47.7845 71.355 47.5928 71.5374 47.3589 71.5374C47.1249 71.5374 47.0449 71.355 47.1816 71.1321C47.3183 70.9092 47.5096 70.7268 47.6073 70.7268C47.7049 70.7268 47.7845 70.9092 47.7845 71.1321ZM73.7116 78.8334C73.8483 79.0563 73.7683 79.2387 73.5344 79.2387C73.3004 79.2387 73.1087 79.0563 73.1087 78.8334C73.1087 78.6105 73.1883 78.4281 73.286 78.4281C73.3836 78.4281 73.575 78.6105 73.7116 78.8334ZM34.3185 83.729C35.2029 83.9596 36.5145 84.3013 37.2328 84.4882C38.0898 84.7111 38.5392 84.6819 38.5392 84.4035C38.5392 84.1696 38.8894 84.3856 39.3174 84.8834C39.7455 85.3811 40.3698 85.8286 40.7046 85.8785C41.0399 85.9279 41.8101 86.5063 42.4162 87.1634L43.5188 88.3587L41.9387 88.49C41.0696 88.5626 40.2508 88.7972 40.1194 89.0121C39.6479 89.7814 31.807 89.3984 27.887 88.4142C27.0903 88.2144 22.8624 85.2855 22.8624 84.9336C22.8624 84.4995 26.1292 83.3926 28.088 83.1631C29.8233 82.9597 32.1973 83.1753 34.3185 83.729ZM94.7552 85.2311C95.0559 85.5173 95.6198 85.6499 96.0089 85.5254C96.5299 85.3584 96.7039 85.5112 96.6702 86.1054C96.6211 86.9578 92.5263 90.226 90.7721 90.8117C89.7551 91.1518 85.1003 91.3314 85.4102 91.0193C85.5067 90.9216 84.548 90.4007 83.2797 89.8617C80.4024 88.638 78.9011 86.94 80.6971 86.94C81.1119 86.94 81.6602 86.6867 81.915 86.377C82.1699 86.0674 83.2295 85.598 84.2702 85.3337C85.3105 85.0694 86.3886 84.6637 86.6655 84.4322C86.9646 84.1817 87.7818 84.1291 88.6806 84.3029C89.5123 84.4635 90.9514 84.6276 91.8795 84.6681C93.3431 84.7318 93.5027 84.6592 93.0854 84.1181C92.6545 83.56 92.6883 83.5583 93.4066 84.1027C93.8479 84.4371 94.4549 84.945 94.7552 85.2311ZM31.3037 92.2093C31.3037 92.4323 31.2241 92.6147 31.1265 92.6147C31.0288 92.6147 30.8375 92.4323 30.7008 92.2093C30.5641 91.9864 30.6441 91.804 30.8781 91.804C31.112 91.804 31.3037 91.9864 31.3037 92.2093ZM91.5993 93.1987C91.5993 93.2972 91.4184 93.4902 91.1974 93.628C90.9763 93.7658 90.7954 93.6851 90.7954 93.4492C90.7954 93.2133 90.9763 93.02 91.1974 93.02C91.4184 93.02 91.5993 93.1002 91.5993 93.1987Z" fill="#EFEDEB"></path></svg> 