<?xml version="1.0" encoding="UTF-8"?> <svg xmlns="http://www.w3.org/2000/svg" width="141" height="25" viewBox="0 0 141 25" fill="none"><path d="M11.5452 2.42251C11.6949 1.96185 12.3466 1.96185 12.4963 2.42251L14.6073 8.91962C14.6742 9.12563 14.8662 9.26511 15.0828 9.26511H21.9143C22.3987 9.26511 22.6 9.88492 22.2082 10.1696L16.6814 14.1851C16.5062 14.3124 16.4328 14.5381 16.4998 14.7441L18.6108 21.2412C18.7605 21.7018 18.2333 22.0849 17.8414 21.8002L12.3146 17.7848C12.1394 17.6574 11.9021 17.6574 11.7268 17.7848L6.20007 21.8002C5.80822 22.0849 5.28098 21.7018 5.43065 21.2412L7.54169 14.7441C7.60863 14.5381 7.5353 14.3124 7.36006 14.1851L1.83329 10.1696C1.44143 9.88492 1.64282 9.26511 2.12718 9.26511H8.95864C9.17526 9.26511 9.36723 9.12563 9.43417 8.91962L11.5452 2.42251Z" fill="#D24D40"></path><path d="M40.7848 2.42251C40.9345 1.96185 41.5862 1.96185 41.7359 2.42251L43.8469 8.91962C43.9139 9.12563 44.1058 9.26511 44.3225 9.26511H51.1539C51.6383 9.26511 51.8397 9.88492 51.4478 10.1696L45.921 14.1851C45.7458 14.3124 45.6725 14.5381 45.7394 14.7441L47.8504 21.2412C48.0001 21.7018 47.4729 22.0849 47.081 21.8002L41.5543 17.7848C41.379 17.6574 41.1417 17.6574 40.9665 17.7848L35.4397 21.8002C35.0478 22.0849 34.5206 21.7018 34.6703 21.2412L36.7813 14.7441C36.8483 14.5381 36.7749 14.3124 36.5997 14.1851L31.0729 10.1696C30.6811 9.88492 30.8824 9.26511 31.3668 9.26511H38.1983C38.4149 9.26511 38.6069 9.12563 38.6738 8.91962L40.7848 2.42251Z" fill="#D24D40"></path><path d="M70.0245 2.42251C70.1741 1.96185 70.8258 1.96185 70.9755 2.42251L73.0866 8.91962C73.1535 9.12563 73.3455 9.26511 73.5621 9.26511H80.3935C80.8779 9.26511 81.0793 9.88492 80.6874 10.1696L75.1607 14.1851C74.9854 14.3124 74.9121 14.5381 74.979 14.7441L77.0901 21.2412C77.2397 21.7018 76.7125 22.0849 76.3206 21.8002L70.7939 17.7848C70.6186 17.6574 70.3813 17.6574 70.2061 17.7848L64.6793 21.8002C64.2875 22.0849 63.7602 21.7018 63.9099 21.2412L66.0209 14.7441C66.0879 14.5381 66.0145 14.3124 65.8393 14.1851L60.3125 10.1696C59.9207 9.88492 60.1221 9.26511 60.6064 9.26511H67.4379C67.6545 9.26511 67.8465 9.12563 67.9134 8.91962L70.0245 2.42251Z" fill="#D24D40"></path><path d="M99.2641 2.42251C99.4138 1.96185 100.065 1.96185 100.215 2.42251L102.326 8.91962C102.393 9.12563 102.585 9.26511 102.802 9.26511H109.633C110.118 9.26511 110.319 9.88492 109.927 10.1696L104.4 14.1851C104.225 14.3124 104.152 14.5381 104.219 14.7441L106.33 21.2412C106.479 21.7018 105.952 22.0849 105.56 21.8002L100.034 17.7848C99.8583 17.6574 99.621 17.6574 99.4457 17.7848L93.919 21.8002C93.5271 22.0849 92.9999 21.7018 93.1496 21.2412L95.2606 14.7441C95.3275 14.5381 95.2542 14.3124 95.079 14.1851L89.5522 10.1696C89.1603 9.88492 89.3617 9.26511 89.8461 9.26511H96.6775C96.8942 9.26511 97.0861 9.12563 97.1531 8.91962L99.2641 2.42251Z" fill="#D24D40"></path><path d="M128.504 2.42251C128.653 1.96185 129.305 1.96185 129.455 2.42251L131.566 8.91962C131.633 9.12563 131.825 9.26511 132.041 9.26511H138.873C139.357 9.26511 139.559 9.88492 139.167 10.1696L133.64 14.1851C133.465 14.3124 133.391 14.5381 133.458 14.7441L135.569 21.2412C135.719 21.7018 135.192 22.0849 134.8 21.8002L129.273 17.7848C129.098 17.6574 128.861 17.6574 128.685 17.7848L123.159 21.8002C122.767 22.0849 122.24 21.7018 122.389 21.2412L124.5 14.7441C124.567 14.5381 124.494 14.3124 124.319 14.1851L118.792 10.1696C118.4 9.88492 118.601 9.26511 119.086 9.26511H125.917C126.134 9.26511 126.326 9.12563 126.393 8.91962L128.504 2.42251Z" fill="#D24D40"></path></svg> 